<?xml version="1.0" standalone="no"?>
<!DOCTYPE svg PUBLIC "-//W3C//DTD SVG 20010904//EN"
 "http://www.w3.org/TR/2001/REC-SVG-20010904/DTD/svg10.dtd">
<svg version="1.0" xmlns="http://www.w3.org/2000/svg"
 width="137.000000pt" height="137.000000pt" viewBox="0 0 137.000000 137.000000"
 preserveAspectRatio="xMidYMid meet">
<metadata>
Created by potrace 1.11, written by Peter Selinger 2001-2013
</metadata>
<g transform="translate(0.000000,137.000000) scale(0.100000,-0.100000)"
fill="#000000" stroke="none">
<path d="M748 1305 c-1 -1 -25 -6 -53 -9 -27 -4 -77 -12 -110 -17 -33 -6 -71
-13 -85 -14 -14 -2 -38 -5 -55 -8 -37 -7 -277 -46 -325 -53 -69 -10 -65 25
-44 -319 2 -44 6 -124 8 -177 3 -54 7 -102 11 -108 3 -6 0 -7 -9 -4 -9 3 -14
10 -11 15 3 4 -5 13 -17 19 -19 9 -21 9 -8 -2 9 -7 15 -17 15 -23 -1 -17 -16
-36 -25 -30 -5 3 -11 1 -14 -3 -3 -5 7 -8 22 -7 15 1 26 7 24 14 -1 7 2 10 8
6 8 -5 7 -12 -2 -23 -11 -13 -10 -15 5 -9 9 3 17 2 17 -3 0 -6 -8 -10 -17 -10
-14 0 -15 -2 -4 -9 11 -7 11 -9 0 -14 -10 -4 -10 -6 -1 -6 6 -1 12 -5 12 -11
0 -5 -7 -7 -15 -4 -9 4 -13 15 -11 30 3 13 0 24 -5 24 -9 0 -13 -15 -10 -34 1
-5 -3 -12 -9 -16 -8 -5 -6 -9 5 -13 10 -4 14 -3 9 4 -3 6 5 3 20 -6 24 -16 39
-34 15 -20 -20 13 -69 16 -69 5 0 -6 4 -9 9 -6 17 11 43 -5 31 -18 -5 -7 -11
-21 -13 -32 -1 -10 -6 -26 -11 -34 -7 -12 -5 -12 8 1 10 9 19 24 20 34 2 11 9
21 17 23 8 2 10 0 4 -5 -13 -10 -19 -47 -7 -39 5 3 9 -1 9 -9 0 -11 -4 -12
-14 -4 -10 9 -13 8 -13 -5 0 -9 7 -16 16 -16 11 0 14 -6 9 -20 -6 -18 3 -25
28 -21 11 2 8 -14 -5 -28 -11 -11 -9 -11 9 0 12 7 19 19 16 28 -4 14 -3 14 5
1 7 -9 7 -18 1 -26 -6 -8 -4 -14 7 -18 23 -9 31 -7 14 4 -8 5 -10 10 -5 10 12
-1 55 -36 55 -45 0 -4 -6 -2 -13 4 -8 6 -18 7 -22 3 -5 -4 -5 -1 -1 5 5 9 2
11 -9 7 -19 -8 -14 -14 12 -19 10 -1 17 -8 15 -15 -1 -7 2 -8 9 -4 9 5 10 2 6
-10 -4 -11 -3 -15 4 -11 6 4 8 13 5 21 -3 8 -1 14 4 14 10 0 14 -14 10 -40 -1
-8 1 -12 6 -8 4 4 13 3 20 -3 8 -7 14 -7 19 1 5 8 12 4 22 -9 8 -12 21 -21 29
-21 8 0 13 -4 10 -9 -6 -10 19 -9 29 1 9 8 45 -3 45 -14 0 -5 -9 -4 -20 2 -16
8 -20 8 -20 -4 0 -10 6 -13 17 -9 10 4 14 2 10 -4 -4 -6 3 -9 18 -7 14 1 25
-2 25 -8 0 -6 7 -5 16 2 12 11 15 11 12 -1 -2 -8 3 -13 10 -12 6 2 12 0 12 -5
0 -4 13 -13 28 -19 33 -15 25 -17 262 67 96 34 182 63 190 65 29 8 274 96 279
101 3 3 6 19 7 37 1 18 5 73 8 122 3 50 8 131 11 180 2 50 7 122 9 160 3 39 8
121 11 184 3 63 8 118 10 122 9 14 -26 29 -270 109 -251 83 -280 91 -287 85z
m-628 -970 c-7 -8 -17 -12 -23 -8 -6 4 -3 9 9 14 27 11 28 11 14 -6z m84 -51
c3 -8 2 -12 -4 -9 -6 3 -10 10 -10 16 0 14 7 11 14 -7z m60 -40 c3 -8 2 -12
-4 -9 -6 3 -10 10 -10 16 0 14 7 11 14 -7z m6 -40 c0 -20 -7 -17 -20 6 -9 16
-8 18 5 14 8 -4 15 -12 15 -20z m51 -1 c13 -16 12 -17 -3 -4 -10 7 -18 15 -18
17 0 8 8 3 21 -13z m4 -31 c-3 -3 -11 0 -18 7 -9 10 -8 11 6 5 10 -3 15 -9 12
-12z m29 -8 c3 -8 2 -12 -4 -9 -6 3 -10 10 -10 16 0 14 7 11 14 -7z"/>
<path d="M20 616 c0 -2 8 -10 18 -17 15 -13 16 -12 3 4 -13 16 -21 21 -21 13z"/>
<path d="M10 509 c0 -5 5 -7 10 -4 6 3 10 8 10 11 0 2 -4 4 -10 4 -5 0 -10 -5
-10 -11z"/>
<path d="M40 449 c0 -5 -4 -8 -8 -5 -4 2 -8 -4 -8 -15 0 -19 1 -19 13 -3 13
18 17 34 8 34 -3 0 -5 -5 -5 -11z"/>
<path d="M61 334 c0 -11 3 -14 6 -6 3 7 2 16 -1 19 -3 4 -6 -2 -5 -13z"/>
</g>
</svg>
